<svg xmlns="http://www.w3.org/2000/svg"  viewBox="0 0 100 100" width="100px" height="100px" baseProfile="basic"><path fill="#c7ede6" d="M87.215,56.71C88.35,54.555,89,52.105,89,49.5c0-6.621-4.159-12.257-10.001-14.478	C78.999,35.015,79,35.008,79,35c0-11.598-9.402-21-21-21c-9.784,0-17.981,6.701-20.313,15.757C36.211,29.272,34.638,29,33,29	c-7.692,0-14.023,5.793-14.89,13.252C12.906,43.353,9,47.969,9,53.5C9,59.851,14.149,65,20.5,65c0.177,0,0.352-0.012,0.526-0.022	C21.022,65.153,21,65.324,21,65.5C21,76.822,30.178,86,41.5,86c6.437,0,12.175-2.972,15.934-7.614C59.612,80.611,62.64,82,66,82	c4.65,0,8.674-2.65,10.666-6.518C77.718,75.817,78.837,76,80,76c6.075,0,11-4.925,11-11C91,61.689,89.53,58.727,87.215,56.71z"/><path fill="#fff" d="M15.405,51H5.5C5.224,51,5,50.776,5,50.5S5.224,50,5.5,50h9.905c0.276,0,0.5,0.224,0.5,0.5 S15.682,51,15.405,51z"/><path fill="#fff" d="M18.5,51h-1c-0.276,0-0.5-0.224-0.5-0.5s0.224-0.5,0.5-0.5h1c0.276,0,0.5,0.224,0.5,0.5 S18.777,51,18.5,51z"/><path fill="#fff" d="M23.491,53H14.5c-0.276,0-0.5-0.224-0.5-0.5s0.224-0.5,0.5-0.5h8.991c0.276,0,0.5,0.224,0.5,0.5 S23.767,53,23.491,53z"/><path fill="#fff" d="M12.5,53h-1c-0.276,0-0.5-0.224-0.5-0.5s0.224-0.5,0.5-0.5h1c0.276,0,0.5,0.224,0.5,0.5 S12.777,53,12.5,53z"/><path fill="#fff" d="M9.5,53h-2C7.224,53,7,52.776,7,52.5S7.224,52,7.5,52h2c0.276,0,0.5,0.224,0.5,0.5S9.777,53,9.5,53z"/><path fill="#fff" d="M15.5,55h-2c-0.276,0-0.5-0.224-0.5-0.5s0.224-0.5,0.5-0.5h2c0.276,0,0.5,0.224,0.5,0.5 S15.776,55,15.5,55z"/><path fill="#fff" d="M18.5,46c-0.177,0-0.823,0-1,0c-0.276,0-0.5,0.224-0.5,0.5c0,0.276,0.224,0.5,0.5,0.5 c0.177,0,0.823,0,1,0c0.276,0,0.5-0.224,0.5-0.5C19,46.224,18.776,46,18.5,46z"/><path fill="#fff" d="M18.5,48c-0.177,0-4.823,0-5,0c-0.276,0-0.5,0.224-0.5,0.5c0,0.276,0.224,0.5,0.5,0.5 c0.177,0,4.823,0,5,0c0.276,0,0.5-0.224,0.5-0.5C19,48.224,18.776,48,18.5,48z"/><path fill="#fff" d="M23.5,50c-0.177,0-2.823,0-3,0c-0.276,0-0.5,0.224-0.5,0.5c0,0.276,0.224,0.5,0.5,0.5 c0.177,0,2.823,0,3,0c0.276,0,0.5-0.224,0.5-0.5C24,50.224,23.776,50,23.5,50z"/><g><path fill="#fdfcef" d="M43.875,29.5c0,0,3.64,0,6.125,0s4.5-2.015,4.5-4.5c0-2.333-1.782-4.229-4.055-4.455 C50.467,20.364,50.5,20.187,50.5,20c0-2.485-2.015-4.5-4.5-4.5c-1.438,0-2.703,0.686-3.527,1.736 C42.333,14.6,40.171,12.5,37.5,12.5c-2.761,0-5,2.239-5,5c0,0.446,0.077,0.87,0.187,1.282C32.045,18.005,31.086,17.5,30,17.5 c-1.781,0-3.234,1.335-3.455,3.055C26.364,20.533,26.187,20.5,26,20.5c-2.485,0-4.5,2.015-4.5,4.5s2.015,4.5,4.5,4.5s9.5,0,9.5,0 h5.375V30h3V29.5z"/><path fill="#472b29" d="M37.5,12c-3.033,0-5.5,2.467-5.5,5.5c0,0.016,0,0.031,0,0.047C31.398,17.192,30.71,17,30,17 c-1.831,0-3.411,1.261-3.858,3.005C26.095,20.002,26.048,20,26,20c-2.757,0-5,2.243-5,5s2.243,5,5,5h14.875 c0.276,0,0.5-0.224,0.5-0.5s-0.224-0.5-0.5-0.5H26c-2.206,0-4-1.794-4-4s1.794-4,4-4c0.117,0,0.23,0.017,0.343,0.032l0.141,0.019 c0.021,0.003,0.041,0.004,0.062,0.004c0.246,0,0.462-0.185,0.495-0.437C27.232,19.125,28.504,18,30,18 c0.885,0,1.723,0.401,2.301,1.1c0.098,0.118,0.241,0.182,0.386,0.182c0.078,0,0.156-0.018,0.228-0.056 c0.209-0.107,0.314-0.346,0.254-0.573C33.054,18.218,33,17.852,33,17.5c0-2.481,2.019-4.5,4.5-4.5c2.381,0,4.347,1.872,4.474,4.263 c0.011,0.208,0.15,0.387,0.349,0.45c0.05,0.016,0.101,0.024,0.152,0.024c0.15,0,0.296-0.069,0.392-0.192 C43.638,16.563,44.779,16,46,16c2.206,0,4,1.794,4,4c0,0.117-0.017,0.23-0.032,0.343l-0.019,0.141 c-0.016,0.134,0.022,0.268,0.106,0.373c0.084,0.105,0.207,0.172,0.34,0.185C52.451,21.247,54,22.949,54,25c0,2.206-1.794,4-4,4 h-6.125c-0.276,0-0.5,0.224-0.5,0.5s0.224,0.5,0.5,0.5H50c2.757,0,5-2.243,5-5c0-2.397-1.689-4.413-4.003-4.877 C50.999,20.082,51,20.041,51,20c0-2.757-2.243-5-5-5c-1.176,0-2.293,0.416-3.183,1.164C42.219,13.76,40.055,12,37.5,12L37.5,12z"/><path fill="#472b29" d="M36,19c-1.403,0-2.609,0.999-2.913,2.341C32.72,21.119,32.301,21,31.875,21 c-1.202,0-2.198,0.897-2.353,2.068C29.319,23.022,29.126,23,28.937,23c-1.529,0-2.811,1.2-2.918,2.732 C26.01,25.87,26.114,25.99,26.251,26c0.006,0,0.012,0,0.018,0c0.13,0,0.24-0.101,0.249-0.232c0.089-1.271,1.151-2.268,2.419-2.268 c0.229,0,0.47,0.042,0.738,0.127c0.022,0.007,0.045,0.01,0.067,0.01c0.055,0,0.11-0.02,0.156-0.054 C29.962,23.537,30,23.455,30,23.375c0-1.034,0.841-1.875,1.875-1.875c0.447,0,0.885,0.168,1.231,0.473 c0.047,0.041,0.106,0.063,0.165,0.063c0.032,0,0.063-0.006,0.093-0.019c0.088-0.035,0.148-0.117,0.155-0.212 C33.623,20.512,34.712,19.5,36,19.5c0.208,0,0.425,0.034,0.682,0.107c0.023,0.007,0.047,0.01,0.07,0.01 c0.109,0,0.207-0.073,0.239-0.182c0.038-0.133-0.039-0.271-0.172-0.309C36.517,19.04,36.256,19,36,19L36,19z"/><path fill="#472b29" d="M49.883,20.5c-1.326,0-2.508,0.897-2.874,2.182c-0.038,0.133,0.039,0.271,0.172,0.309 C47.205,22.997,47.228,23,47.25,23c0.109,0,0.209-0.072,0.24-0.182C47.795,21.748,48.779,21,49.883,21 c0.117,0,0.23,0.014,0.342,0.029c0.012,0.002,0.023,0.003,0.035,0.003c0.121,0,0.229-0.092,0.246-0.217 c0.019-0.137-0.077-0.263-0.214-0.281C50.158,20.516,50.022,20.5,49.883,20.5L49.883,20.5z"/></g><g><path fill="#fff" d="M85.5,46h-10c-0.276,0-0.5-0.224-0.5-0.5s0.224-0.5,0.5-0.5h10c0.276,0,0.5,0.224,0.5,0.5 S85.776,46,85.5,46z"/><path fill="#fff" d="M89.5,46h-2c-0.276,0-0.5-0.224-0.5-0.5s0.224-0.5,0.5-0.5h2c0.276,0,0.5,0.224,0.5,0.5 S89.776,46,89.5,46z"/><path fill="#fff" d="M94.5,48h-10c-0.276,0-0.5-0.224-0.5-0.5s0.224-0.5,0.5-0.5h10c0.276,0,0.5,0.224,0.5,0.5 S94.777,48,94.5,48z"/><path fill="#fff" d="M82.5,48h-1c-0.276,0-0.5-0.224-0.5-0.5s0.224-0.5,0.5-0.5h1c0.276,0,0.5,0.224,0.5,0.5 S82.776,48,82.5,48z"/><path fill="#fff" d="M79.375,48H77.5c-0.276,0-0.5-0.224-0.5-0.5s0.224-0.5,0.5-0.5h1.875c0.276,0,0.5,0.224,0.5,0.5 S79.651,48,79.375,48z"/><path fill="#fff" d="M88.5,44h-5c-0.276,0-0.5-0.224-0.5-0.5s0.224-0.5,0.5-0.5h5c0.276,0,0.5,0.224,0.5,0.5 S88.777,44,88.5,44z"/><path fill="#fff" d="M85.5,50h-2c-0.276,0-0.5-0.224-0.5-0.5s0.224-0.5,0.5-0.5h2c0.276,0,0.5,0.224,0.5,0.5 S85.776,50,85.5,50z"/></g><path fill="#fc5672" d="M72.515,58.271l-0.004-0.01c-0.861-2.747-10.703-21.939-13.696-27.75	c-1.503-2.946-4.498-4.775-7.815-4.775s-6.312,1.83-7.812,4.769c-2.995,5.817-12.838,25.009-13.703,27.767	c-0.311,1.011-0.642,2.205-0.642,3.569c0,5.7,4.647,10.338,10.359,10.338c5.172,0,9.408-3.781,11.799-6.321	c2.391,2.54,6.627,6.321,11.798,6.321c5.712,0,10.359-4.637,10.359-10.338C73.157,60.476,72.826,59.283,72.515,58.271z M50.999,59.73c-2.46-3.264-3.869-6.422-3.869-8.665c0-2.229,1.736-4.044,3.87-4.044s3.87,1.814,3.87,4.044	C54.87,53.303,53.459,56.46,50.999,59.73z M62.799,68.307c-3.927,0-7.387-3.369-9.299-5.466l0.573-0.76	c2.13-2.825,4.668-7.029,4.668-11.016c0-4.364-3.472-7.914-7.74-7.914s-7.74,3.55-7.74,7.914c0,3.996,2.538,8.198,4.667,11.02	l0.572,0.758c-1.911,2.097-5.371,5.465-9.297,5.465c-3.577,0-6.488-2.901-6.488-6.468c0-0.827,0.233-1.655,0.469-2.422	c0.488-1.556,6.018-12.716,13.45-27.148c0.851-1.669,2.484-2.665,4.368-2.665s3.517,0.996,4.371,2.671	c7.422,14.41,12.948,25.562,13.445,27.137c0.238,0.775,0.471,1.602,0.471,2.426C69.287,65.406,66.376,68.307,62.799,68.307z"/><path fill="#472b29" d="M62.799,72.878c-3.911,0-7.878-2.022-11.799-6.012c-3.919,3.99-7.886,6.012-11.799,6.012	c-6.098,0-11.059-4.952-11.059-11.038c0-1.458,0.348-2.713,0.674-3.774c0.853-2.721,9.898-20.405,13.749-27.881	c1.621-3.175,4.854-5.149,8.435-5.149s6.814,1.976,8.438,5.157c3.848,7.471,12.891,25.146,13.74,27.859l0.005,0.014	c0.326,1.062,0.674,2.316,0.674,3.774C73.857,67.926,68.896,72.878,62.799,72.878z M51,64.835l0.51,0.542	c3.811,4.048,7.609,6.101,11.289,6.101c5.325,0,9.658-4.323,9.658-9.638c0-1.265-0.315-2.399-0.611-3.363v0	c-0.922-2.842-10.675-21.862-13.652-27.645c-1.385-2.712-4.141-4.396-7.193-4.396s-5.807,1.681-7.189,4.387	c-2.991,5.811-12.815,24.971-13.657,27.658c-0.295,0.96-0.61,2.095-0.61,3.359c0,5.314,4.333,9.638,9.658,9.638	c3.682,0,7.479-2.052,11.289-6.101L51,64.835z M62.799,69.008c-3.113,0-6.324-1.863-9.816-5.695l-0.391-0.429l0.921-1.224	c2.065-2.739,4.527-6.801,4.527-10.595c0-3.978-3.158-7.213-7.04-7.213s-7.04,3.236-7.04,7.213c0,3.802,2.461,7.862,4.525,10.598	l0.923,1.222l-0.392,0.43c-3.493,3.831-6.704,5.693-9.815,5.693c-3.964,0-7.188-3.216-7.188-7.168c0-0.922,0.247-1.803,0.5-2.627	c0.505-1.614,5.929-12.569,13.497-27.263c0.972-1.905,2.838-3.044,4.99-3.044s4.02,1.142,4.995,3.054	c7.55,14.659,12.972,25.609,13.488,27.244c0.256,0.831,0.504,1.714,0.504,2.637C69.987,65.792,66.763,69.008,62.799,69.008z M54.411,62.795c3.054,3.237,5.802,4.812,8.388,4.812c3.191,0,5.788-2.587,5.788-5.768c0-0.729-0.217-1.497-0.439-2.221	c-0.479-1.513-6.114-12.879-13.398-27.022c-0.732-1.436-2.134-2.292-3.749-2.292s-3.015,0.853-3.745,2.283	c-7.3,14.175-12.938,25.545-13.405,27.039c-0.221,0.718-0.437,1.484-0.437,2.212c0,3.18,2.597,5.768,5.788,5.768	c2.585,0,5.332-1.575,8.386-4.811l-0.219-0.29c-2.193-2.907-4.809-7.251-4.809-11.441c0-4.75,3.786-8.614,8.44-8.614	s8.44,3.864,8.44,8.614c0,4.182-2.615,8.528-4.81,11.438L54.411,62.795z M50.999,60.894l-0.559-0.742	c-2.549-3.382-4.011-6.694-4.011-9.087c0-2.616,2.051-4.744,4.57-4.744s4.57,2.128,4.57,4.744c0,2.385-1.463,5.697-4.012,9.086	L50.999,60.894z M51,47.722c-1.748,0-3.17,1.5-3.17,3.343c0,1.924,1.146,4.616,3.169,7.478c2.024-2.868,3.171-5.56,3.171-7.478	C54.17,49.221,52.748,47.722,51,47.722z"/><g><path fill="#fdfcef" d="M80.5,77.5c0,0,1.567,0,3.5,0s3.5-1.567,3.5-3.5c0-1.781-1.335-3.234-3.055-3.455 C84.473,70.366,84.5,70.187,84.5,70c0-1.933-1.567-3.5-3.5-3.5c-1.032,0-1.95,0.455-2.59,1.165 c-0.384-1.808-1.987-3.165-3.91-3.165c-2.209,0-4,1.791-4,4c0,0.191,0.03,0.374,0.056,0.558C70.128,68.714,69.592,68.5,69,68.5 c-1.228,0-2.245,0.887-2.455,2.055C66.366,70.527,66.187,70.5,66,70.5c-1.933,0-3.5,1.567-3.5,3.5s1.567,3.5,3.5,3.5s7.5,0,7.5,0 V78h7V77.5z"/><path fill="#472b29" d="M82.25,73C82.112,73,82,72.888,82,72.75c0-1.223,0.995-2.218,2.218-2.218 c0.034,0.009,0.737-0.001,1.244,0.136c0.133,0.036,0.212,0.173,0.176,0.306c-0.036,0.134-0.173,0.213-0.306,0.176 c-0.444-0.12-1.1-0.12-1.113-0.118c-0.948,0-1.719,0.771-1.719,1.718C82.5,72.888,82.388,73,82.25,73z"/><circle cx="75.5" cy="77.5" r=".5" fill="#472b29"/><path fill="#472b29" d="M84,78h-3.5c-0.276,0-0.5-0.224-0.5-0.5s0.224-0.5,0.5-0.5H84c1.654,0,3-1.346,3-3 c0-1.496-1.125-2.768-2.618-2.959c-0.134-0.018-0.255-0.088-0.336-0.196s-0.115-0.244-0.094-0.377C83.975,70.314,84,70.16,84,70 c0-1.654-1.346-3-3-3c-0.85,0-1.638,0.355-2.219,1c-0.125,0.139-0.321,0.198-0.5,0.148c-0.182-0.049-0.321-0.195-0.36-0.379 C77.58,66.165,76.141,65,74.5,65c-1.93,0-3.5,1.57-3.5,3.5c0,0.143,0.021,0.28,0.041,0.418c0.029,0.203-0.063,0.438-0.242,0.54 c-0.179,0.102-0.396,0.118-0.556-0.01C69.878,69.155,69.449,69,69,69c-0.966,0-1.792,0.691-1.963,1.644 c-0.048,0.267-0.296,0.446-0.569,0.405C66.314,71.025,66.16,71,66,71c-1.654,0-3,1.346-3,3s1.346,3,3,3h7.5 c0.276,0,0.5,0.224,0.5,0.5S73.776,78,73.5,78H66c-2.206,0-4-1.794-4-4s1.794-4,4-4c0.059,0,0.116,0.002,0.174,0.006 C66.588,68.82,67.711,68,69,68c0.349,0,0.689,0.061,1.011,0.18C70.176,65.847,72.126,64,74.5,64c1.831,0,3.466,1.127,4.153,2.774 C79.333,66.276,80.155,66,81,66c2.206,0,4,1.794,4,4c0,0.048-0.001,0.095-0.004,0.142C86.739,70.59,88,72.169,88,74 C88,76.206,86.206,78,84,78z"/><path fill="#472b29" d="M78.5,77c-0.159,0-0.841,0-1,0c-0.276,0-0.5,0.224-0.5,0.5c0,0.276,0.224,0.5,0.5,0.5 c0.159,0,0.841,0,1,0c0.276,0,0.5-0.224,0.5-0.5C79,77.224,78.776,77,78.5,77z"/></g></svg>